<svg width="51" height="62" viewBox="0 0 51 62" fill="none" xmlns="http://www.w3.org/2000/svg">
<g clip-path="url(#clip0_5_16)">
<path d="M13.0602 1.52405L10.4806 6.45764C10.0821 7.21936 9.87238 8.09827 9.87238 8.98889V9.31702C9.87238 11.9069 11.7494 14.0045 14.0669 14.0045C16.3844 14.0045 18.2615 11.9069 18.2615 9.31702V8.98889C18.2615 8.09827 18.0518 7.23108 17.6533 6.45764L15.0736 1.52405C14.8639 1.12561 14.4864 0.879517 14.0669 0.879517C13.6475 0.879517 13.27 1.12561 13.0602 1.52405ZM26.4828 1.52405L23.9032 6.45764C23.5047 7.21936 23.295 8.09827 23.295 8.98889V9.31702C23.295 11.9069 25.172 14.0045 27.4895 14.0045C29.807 14.0045 31.6841 11.9069 31.6841 9.31702V8.98889C31.6841 8.09827 31.4743 7.23108 31.0759 6.45764L28.4962 1.52405C28.2865 1.12561 27.909 0.879517 27.4895 0.879517C27.0701 0.879517 26.6925 1.12561 26.4828 1.52405ZM37.3257 6.45764C36.9273 7.21936 36.7175 8.09827 36.7175 8.98889V9.31702C36.7175 11.9069 38.5946 14.0045 40.9121 14.0045C43.2296 14.0045 45.1066 11.9069 45.1066 9.31702V8.98889C45.1066 8.09827 44.8969 7.23108 44.4984 6.45764L41.9188 1.52405C41.7091 1.12561 41.3315 0.879517 40.9121 0.879517C40.4926 0.879517 40.1151 1.12561 39.9054 1.52405L37.3257 6.45764ZM17.4226 21.5045C17.4226 19.4303 15.923 17.7545 14.0669 17.7545C12.2108 17.7545 10.7113 19.4303 10.7113 21.5045V27.1295C7.00959 27.1295 4 30.4928 4 34.6295V42.9498C4.87037 43.5592 5.89804 44.0045 7.02008 44.0045C8.43574 44.0045 9.87238 43.2897 11.0469 42.4342C11.6131 42.024 12.085 41.6022 12.4101 41.2975C12.5674 41.1451 12.6932 41.0162 12.7771 40.9342C12.8191 40.8873 12.8505 40.8639 12.861 40.8405L12.8715 40.8287C13.1966 40.4537 13.6475 40.2545 14.1194 40.2662C14.5913 40.278 15.0212 40.5123 15.3358 40.899L15.3463 40.9108C15.3568 40.9225 15.3882 40.9576 15.4197 40.9928C15.4931 41.0748 15.5979 41.192 15.7448 41.3444C16.0384 41.649 16.4578 42.0592 16.9822 42.4576C18.0518 43.2897 19.394 43.9928 20.7887 43.9928C22.1834 43.9928 23.5257 43.2897 24.5953 42.4576C25.1196 42.0475 25.539 41.649 25.8327 41.3444C25.9795 41.192 26.0843 41.0748 26.1577 40.9928C26.1892 40.9576 26.2207 40.9225 26.2311 40.9108L26.2416 40.899C26.5562 40.4889 27.0176 40.2662 27.5 40.2662C27.9824 40.2662 28.4438 40.5006 28.7584 40.899L28.7689 40.9108C28.7793 40.9225 28.8108 40.9576 28.8423 40.9928C28.9157 41.0748 29.0205 41.192 29.1673 41.3444C29.461 41.649 29.8804 42.0592 30.4047 42.4576C31.4743 43.2897 32.8166 43.9928 34.2113 43.9928C35.606 43.9928 36.9482 43.2897 38.0178 42.4576C38.5422 42.0475 38.9616 41.649 39.2552 41.3444C39.4021 41.192 39.5069 41.0748 39.5803 40.9928C39.6118 40.9576 39.6432 40.9225 39.6537 40.9108L39.6642 40.899C39.9683 40.5006 40.4087 40.278 40.8806 40.2662C41.3525 40.2545 41.7929 40.4537 42.1285 40.8287L42.139 40.8405C42.16 40.8639 42.1809 40.8873 42.2229 40.9342C42.3068 41.0162 42.4221 41.1451 42.5899 41.2975C42.915 41.6022 43.3764 42.024 43.9531 42.4342C45.1276 43.2897 46.5643 44.0045 47.9799 44.0045C49.102 44.0045 50.1296 43.5475 51 42.9498V34.6295C51 30.4928 47.9904 27.1295 44.2887 27.1295V21.5045C44.2887 19.4303 42.7892 17.7545 40.9331 17.7545C39.077 17.7545 37.5774 19.4303 37.5774 21.5045V27.1295H30.8452V21.5045C30.8452 19.4303 29.3456 17.7545 27.4895 17.7545C25.6334 17.7545 24.1339 19.4303 24.1339 21.5045V27.1295H17.4226V21.5045ZM50.979 47.1217C50.0877 47.5084 49.0705 47.7545 47.9589 47.7545C45.5995 47.7545 43.5127 46.5944 42.1075 45.5748C41.6776 45.2584 41.2896 44.942 40.9645 44.6608C40.6709 44.942 40.3249 45.2467 39.9369 45.5397C38.5841 46.5826 36.5707 47.7545 34.2008 47.7545C31.8309 47.7545 29.8175 46.5826 28.4752 45.5397C28.1082 45.2584 27.7726 44.9655 27.4895 44.6959C27.2064 44.9655 26.8708 45.2467 26.5038 45.5397C25.1615 46.5826 23.1481 47.7545 20.7782 47.7545C18.4083 47.7545 16.3949 46.5826 15.0527 45.5397C14.6647 45.235 14.3186 44.9303 14.025 44.6608C13.6999 44.942 13.3119 45.2584 12.882 45.5748C11.4663 46.5944 9.37952 47.7545 7.02008 47.7545C5.90852 47.7545 4.89134 47.4967 4 47.1217V57.1295C4 59.2037 5.49955 60.8795 7.35564 60.8795H47.6234C49.4795 60.8795 50.979 59.2037 50.979 57.1295V47.1217Z" fill="#D98555"/>
</g>
<defs>
<clipPath id="clip0_5_16">
<rect width="50" height="60.241" fill="white" transform="translate(0.5 0.879517)"/>
</clipPath>
</defs>
</svg>
