<svg width="52" height="52" viewBox="0 0 52 52" fill="none" xmlns="http://www.w3.org/2000/svg">
<path d="M12.025 0.558594L9.52656 4.83437C9.14062 5.49453 8.9375 6.25625 8.9375 7.02812V7.3125C8.9375 9.55703 10.7555 11.375 13 11.375C15.2445 11.375 17.0625 9.55703 17.0625 7.3125V7.02812C17.0625 6.25625 16.8594 5.50469 16.4734 4.83437L13.975 0.558594C13.7719 0.213281 13.4062 0 13 0C12.5938 0 12.2281 0.213281 12.025 0.558594ZM25.025 0.558594L22.5266 4.83437C22.1406 5.49453 21.9375 6.25625 21.9375 7.02812V7.3125C21.9375 9.55703 23.7555 11.375 26 11.375C28.2445 11.375 30.0625 9.55703 30.0625 7.3125V7.02812C30.0625 6.25625 29.8594 5.50469 29.4734 4.83437L26.975 0.558594C26.7719 0.213281 26.4062 0 26 0C25.5938 0 25.2281 0.213281 25.025 0.558594ZM35.5266 4.83437C35.1406 5.49453 34.9375 6.25625 34.9375 7.02812V7.3125C34.9375 9.55703 36.7555 11.375 39 11.375C41.2445 11.375 43.0625 9.55703 43.0625 7.3125V7.02812C43.0625 6.25625 42.8594 5.50469 42.4734 4.83437L39.975 0.558594C39.7719 0.213281 39.4062 0 39 0C38.5938 0 38.2281 0.213281 38.025 0.558594L35.5266 4.83437ZM16.25 17.875C16.25 16.0773 14.7977 14.625 13 14.625C11.2023 14.625 9.75 16.0773 9.75 17.875V22.75C6.16484 22.75 3.25 25.6648 3.25 29.25V36.4609C4.09297 36.9891 5.08828 37.375 6.175 37.375C7.54609 37.375 8.9375 36.7555 10.075 36.0141C10.6234 35.6586 11.0805 35.293 11.3953 35.0289C11.5477 34.8969 11.6695 34.7852 11.7508 34.7141C11.7914 34.6734 11.8219 34.6531 11.832 34.6328L11.8422 34.6227C12.157 34.2977 12.5938 34.125 13.0508 34.1352C13.5078 34.1453 13.9242 34.3484 14.2289 34.6836L14.2391 34.6938C14.2492 34.7039 14.2797 34.7344 14.3102 34.7648C14.3813 34.8359 14.4828 34.9375 14.625 35.0695C14.9094 35.3336 15.3156 35.6891 15.8234 36.0344C16.8594 36.7555 18.1594 37.3648 19.5102 37.3648C20.8609 37.3648 22.1609 36.7555 23.1969 36.0344C23.7047 35.6789 24.1109 35.3336 24.3953 35.0695C24.5375 34.9375 24.6391 34.8359 24.7102 34.7648C24.7406 34.7344 24.7711 34.7039 24.7812 34.6938L24.7914 34.6836C25.0961 34.3281 25.543 34.1352 26.0102 34.1352C26.4773 34.1352 26.9242 34.3383 27.2289 34.6836L27.2391 34.6938C27.2492 34.7039 27.2797 34.7344 27.3102 34.7648C27.3812 34.8359 27.4828 34.9375 27.625 35.0695C27.9094 35.3336 28.3156 35.6891 28.8234 36.0344C29.8594 36.7555 31.1594 37.3648 32.5102 37.3648C33.8609 37.3648 35.1609 36.7555 36.1969 36.0344C36.7047 35.6789 37.1109 35.3336 37.3953 35.0695C37.5375 34.9375 37.6391 34.8359 37.7102 34.7648C37.7406 34.7344 37.7711 34.7039 37.7812 34.6938L37.7914 34.6836C38.0859 34.3383 38.5125 34.1453 38.9695 34.1352C39.4266 34.125 39.8531 34.2977 40.1781 34.6227L40.1883 34.6328C40.2086 34.6531 40.2289 34.6734 40.2695 34.7141C40.3508 34.7852 40.4625 34.8969 40.625 35.0289C40.9398 35.293 41.3867 35.6586 41.9453 36.0141C43.0828 36.7555 44.4742 37.375 45.8453 37.375C46.932 37.375 47.9273 36.9789 48.7703 36.4609V29.25C48.7703 25.6648 45.8555 22.75 42.2703 22.75V17.875C42.2703 16.0773 40.818 14.625 39.0203 14.625C37.2227 14.625 35.7703 16.0773 35.7703 17.875V22.75H29.25V17.875C29.25 16.0773 27.7977 14.625 26 14.625C24.2023 14.625 22.75 16.0773 22.75 17.875V22.75H16.25V17.875ZM48.75 40.0766C47.8867 40.4117 46.9016 40.625 45.825 40.625C43.5398 40.625 41.5187 39.6195 40.1578 38.7359C39.7414 38.4617 39.3656 38.1875 39.0508 37.9438C38.7664 38.1875 38.4313 38.4516 38.0555 38.7055C36.7453 39.6094 34.7953 40.625 32.5 40.625C30.2047 40.625 28.2547 39.6094 26.9547 38.7055C26.5992 38.4617 26.2742 38.2078 26 37.9742C25.7258 38.2078 25.4008 38.4516 25.0453 38.7055C23.7453 39.6094 21.7953 40.625 19.5 40.625C17.2047 40.625 15.2547 39.6094 13.9547 38.7055C13.5789 38.4414 13.2437 38.1773 12.9594 37.9438C12.6445 38.1875 12.2687 38.4617 11.8523 38.7359C10.4812 39.6195 8.46016 40.625 6.175 40.625C5.09844 40.625 4.11328 40.4016 3.25 40.0766V48.75C3.25 50.5477 4.70234 52 6.5 52H45.5C47.2977 52 48.75 50.5477 48.75 48.75V40.0766Z" fill="#F2F2F2"/>
</svg>
